<svg width="30" height="19" viewBox="0 0 30 19" fill="none" xmlns="http://www.w3.org/2000/svg">
<path class="color-background" d="M9.75 0C7.16414 0 4.68419 1.00089 2.85571 2.78249C1.02723 4.56408 0 6.98044 0 9.5C0 10.7476 0.252191 11.9829 0.742174 13.1355C1.23216 14.2881 1.95034 15.3354 2.85571 16.2175C4.68419 17.9991 7.16414 19 9.75 19C11.0304 19 12.2982 18.7543 13.4812 18.2769C14.6641 17.7994 15.7389 17.0997 16.6443 16.2175C17.5497 15.3354 18.2678 14.2881 18.7578 13.1355C19.2478 11.9829 19.5 10.7476 19.5 9.5V7.17615L30 4.38462V0H13.5V2.92308H10.5V0H9.75Z" fill="black"/>
</svg>
